<?xml version="1.0" encoding="utf-8"?>
<!-- Generator: Adobe Illustrator 25.2.1, SVG Export Plug-In . SVG Version: 6.00 Build 0)  -->
<svg version="1.1" id="Camada_1" xmlns="http://www.w3.org/2000/svg" xmlns:xlink="http://www.w3.org/1999/xlink" x="0px" y="0px"
	 viewBox="0 0 738.3 276.9" style="enable-background:new 0 0 738.3 276.9;" xml:space="preserve">
<style type="text/css">
	.st0{fill:#FFFFFF;}
</style>
<g>
	<g>
		<polygon class="st0" points="168.2,163.2 150.5,163.2 150.5,56.6 132,56.6 132,41.9 186.6,41.9 186.6,56.6 168.2,56.6 		"/>
		<g>
			<path class="st0" d="M239.7,56.4h-23.1v44.2h23.1V56.4z M239.7,163.2v-47.7h-23.1v47.7h-17.4V59.3c0-9.6,7.9-17.4,17.4-17.4h23.3
				c9.6,0,17.4,7.9,17.4,17.4v103.9L239.7,163.2L239.7,163.2z"/>
			<path class="st0" d="M294,164.7c-9.6,0-17.4-7.9-17.4-17.4v-88c0-9.6,7.9-17.4,17.4-17.4h24.1c9.6,0,17.2,7.9,17.2,17.4v25.5
				h-17.4V56.4H294v93.8h26v-35.4h-13V99.6h29.2v47.7c0,9.6-7.6,17.4-17.2,17.4H294z"/>
		</g>
		<path class="st0" d="M11.7,194.4h182.7l100.1,59.3l-10.7-59.3h78.7V11.7H11.7V194.4z M310.6,276.9l-119.4-70.8H0V0h374.2v206.1
			h-76.4L310.6,276.9z"/>
		<path class="st0" d="M98.4,68.2l-19.7,4.2L92,87.8l-11.7,8.7L69.9,78.8L59.5,96.5l-11.9-8.7l13.2-14.9L41,68.2l4.5-14l18.3,8.1
			l-1.5-20.4h14.8l-2.3,20L93.7,54L98.4,68.2z M108,139.3v-1.7V0H31.4v139.3l38.3-38.7L108,139.3z"/>
	</g>
	<g id="decodificador_8_">
		<path class="st0" d="M413.5,81.4h20.2v7.1h-28.8V44.2h28.6v7.1h-20v11.4h17.2v7.1h-17.2L413.5,81.4L413.5,81.4z"/>
		<path class="st0" d="M457,73.6l9.9,14.9h-9.1l-5.8-9.6l-6,9.6h-9l10-15l-10-14.9h9.1l5.9,9.6l5.9-9.6h9L457,73.6z"/>
		<path class="st0" d="M479.2,86.3v16.3h-7.9v-44h7.5v2.5c2.2-2.1,5-3.1,8.4-3.1c4,0,7,1.4,9.2,4.1c2.2,2.8,3.2,6.6,3.2,11.6
			c0,4.9-1.1,8.8-3.2,11.5c-2.2,2.7-5.3,4.1-9.3,4.1C483.8,89.2,481.2,88.3,479.2,86.3z M491.6,73.7c0-5.6-2.2-8.4-6.5-8.4
			c-2.4,0-4.4,0.7-5.8,2.1V80c1.6,1.3,3.5,2,5.7,2C489.4,81.9,491.6,79.2,491.6,73.7z"/>
		<path class="st0" d="M518.9,82.5c2.7,0,5.1-0.9,7.3-2.8l3.7,5.2c-2.9,2.9-6.6,4.3-11.1,4.3c-5,0-8.7-1.4-11.1-4.2
			s-3.6-6.6-3.6-11.4c0-4.5,1.2-8.2,3.6-11.1c2.4-3,5.8-4.5,10.3-4.5c4.3,0,7.5,1.3,9.5,3.8c2.1,2.5,3.1,5.6,3.1,9.2
			c0,2.1-0.2,3.9-0.5,5.2h-18c0.1,2,0.7,3.6,1.8,4.7C515.2,81.9,516.8,82.5,518.9,82.5z M512.3,70.5h11c0.1-0.5,0.1-0.9,0.1-1
			c0-1.7-0.5-2.9-1.5-3.8s-2.3-1.3-3.8-1.3c-1.9,0-3.3,0.6-4.3,1.7C512.9,67.2,512.3,68.7,512.3,70.5z"/>
		<path class="st0" d="M544,63.4L544,63.4c2.1-3.6,4.7-5.4,8.1-5.4c1.3,0,2.4,0.1,3.4,0.4l-0.6,8.4c-1.7-0.4-3.3-0.6-4.8-0.6
			c-2.6,0-4.5,1.2-5.8,3.5v18.8h-7.9V58.6h7.6V63.4z"/>
		<path class="st0" d="M563.7,53c-3.2,0-4.8-1.5-4.8-4.6c0-1.6,0.4-2.8,1.3-3.5c0.9-0.8,2.1-1.2,3.5-1.2c1.3,0,2.4,0.4,3.3,1.2
			c0.9,0.8,1.4,2,1.4,3.5c0,1.6-0.4,2.7-1.3,3.5C566.2,52.6,565.1,53,563.7,53z M559.9,88.5V58.6h7.9v29.9H559.9z"/>
		<path class="st0" d="M588.4,82.5c2.7,0,5.1-0.9,7.3-2.8l3.7,5.2c-2.9,2.9-6.6,4.3-11.1,4.3c-5,0-8.7-1.4-11.1-4.2
			s-3.6-6.6-3.6-11.4c0-4.5,1.2-8.2,3.6-11.1c2.4-3,5.8-4.5,10.3-4.5c4.3,0,7.5,1.3,9.5,3.8c2.1,2.5,3.1,5.6,3.1,9.2
			c0,2.1-0.2,3.9-0.5,5.2h-18c0.1,2,0.7,3.6,1.8,4.7C584.6,81.9,586.2,82.5,588.4,82.5z M583.8,42.9h7.9l6.6,10.8h-7.1l-3.5-5.8
			l-3.5,5.8h-7.1L583.8,42.9z M581.7,70.5h11c0.1-0.5,0.1-0.9,0.1-1c0-1.7-0.5-2.9-1.5-3.8s-2.3-1.3-3.8-1.3c-1.9,0-3.3,0.6-4.3,1.7
			C582.3,67.2,581.8,68.7,581.7,70.5z"/>
		<path class="st0" d="M605.9,88.5V58.6h7.7V62c1.9-2.7,5-4.1,9.2-4.1c6.8,0,10.2,4,10.2,11.9v18.7h-8V70.8c0-1.9-0.4-3.3-1.2-4.2
			c-0.8-0.9-2.2-1.3-4.1-1.3c-2.3,0-4.3,0.7-5.8,2.2v21H605.9z"/>
		<path class="st0" d="M638.4,73.6c0-4.5,1.1-8.3,3.4-11.2c2.3-2.9,5.7-4.4,10.4-4.4c5.9,0,9.9,2.2,12,6.7l-5.5,3.9
			c-1.4-2.4-3.4-3.6-5.8-3.6c-4.3,0-6.4,2.9-6.4,8.6c0,5.8,2.1,8.6,6.4,8.6c2.5,0,4.4-1.2,5.8-3.7l5.5,4c-2.1,4.5-6.1,6.7-12,6.7
			c-4.7,0-8.1-1.5-10.4-4.4C639.5,81.9,638.4,78.2,638.4,73.6z"/>
		<path class="st0" d="M673,53c-3.2,0-4.8-1.5-4.8-4.6c0-1.6,0.4-2.8,1.3-3.5c0.9-0.8,2.1-1.2,3.5-1.2c1.3,0,2.4,0.4,3.3,1.2
			c0.9,0.8,1.4,2,1.4,3.5c0,1.6-0.4,2.7-1.3,3.5C675.5,52.6,674.3,53,673,53z M669.1,88.5V58.6h7.9v29.9H669.1z"/>
		<path class="st0" d="M708.4,88.5h-7.5V85c-2.4,2.8-5.6,4.2-9.5,4.2c-2.6,0-4.7-0.8-6.4-2.4c-1.6-1.6-2.4-3.7-2.4-6.4
			c0-6,4.8-9.4,14.5-10l3.3-0.3v-1.9c0-1.4-0.4-2.4-1.1-3.1c-0.7-0.7-2-1-3.7-1c-1.5,0-2.6,0.3-3.4,0.8c-0.8,0.5-1.2,1.2-1.2,2.1
			v1.2h-6.9c-0.1-0.7-0.2-1.3-0.2-2c0-2.5,1.1-4.5,3.3-6s5.2-2.3,8.9-2.3c3.8,0,6.8,0.8,9,2.5s3.2,4.3,3.2,7.8v20.3H708.4z
			 M690.7,80c0,2.1,1.2,3.2,3.7,3.2c2.3,0,4.3-0.9,6-2.6V75l-3.2,0.5C692.8,76.1,690.7,77.6,690.7,80z"/>
		<path class="st0" d="M737.7,62.4l-4.4,4.7c-2.1-2.1-4.5-3.1-7.2-3.1c-1.3,0-2.3,0.3-3,0.8c-0.7,0.6-1,1.2-1,2.1
			c0,1.5,0.9,2.4,2.7,2.8l5,1.1c5.7,1.3,8.5,4.3,8.5,8.8c0,2.7-1,5-3.1,6.8s-5.4,2.8-9.9,2.8c-5.4,0-9.5-1.7-12.2-5l4.5-4.7
			c2.4,2.6,5.1,3.9,8,3.9c1.4,0,2.5-0.3,3.3-0.8s1.2-1.2,1.2-2.2c0-1.4-1-2.4-3-2.8l-5.1-1.3c-5.3-1.3-7.9-4.2-7.9-8.7
			c0-2.5,1-4.8,3-6.7s5.1-2.9,9.2-2.9C731.3,58,735,59.4,737.7,62.4z"/>
		<path class="st0" d="M413.5,156.3h17.6v7.1h-26.2v-44.3h8.6V156.3z"/>
		<path class="st0" d="M439.5,127.9c-3.2,0-4.8-1.5-4.8-4.6c0-1.6,0.4-2.8,1.3-3.5c0.9-0.8,2.1-1.2,3.5-1.2c1.3,0,2.4,0.4,3.3,1.2
			c0.9,0.8,1.4,2,1.4,3.5c0,1.6-0.4,2.7-1.3,3.5C442,127.5,440.8,127.9,439.5,127.9z M435.6,163.4v-29.9h7.9v29.9H435.6z"/>
		<path class="st0" d="M461.6,140.2v13.4c0,2.1,1.1,3.2,3.3,3.2c1.2,0,2.4-0.2,3.5-0.5l0.1,6.9c-1.7,0.7-3.8,1-6.4,1
			c-2.9,0-5.1-0.9-6.5-2.6s-2.1-4-2.1-6.9v-14.5h-5.4v-6l5.4-0.7v-7.3l7.9-1.2v8.5h6.7v6.7L461.6,140.2L461.6,140.2z"/>
		<path class="st0" d="M487.2,157.4c2.7,0,5.1-0.9,7.3-2.8l3.7,5.2c-2.9,2.9-6.6,4.3-11.1,4.3c-5,0-8.7-1.4-11.1-4.2
			s-3.6-6.6-3.6-11.4c0-4.5,1.2-8.2,3.6-11.1c2.4-3,5.8-4.5,10.3-4.5c4.3,0,7.5,1.3,9.5,3.8c2.1,2.5,3.1,5.6,3.1,9.2
			c0,2.1-0.2,3.9-0.5,5.2h-18c0.1,2,0.7,3.6,1.8,4.7S485,157.4,487.2,157.4z M480.5,145.4h11c0.1-0.5,0.1-0.9,0.1-1
			c0-1.7-0.5-2.9-1.5-3.8c-1-0.9-2.3-1.3-3.8-1.3c-1.9,0-3.3,0.6-4.3,1.7C481.1,142.1,480.6,143.6,480.5,145.4z"/>
		<path class="st0" d="M512.3,138.3L512.3,138.3c2.1-3.6,4.7-5.4,8.1-5.4c1.3,0,2.4,0.1,3.4,0.4l-0.6,8.4c-1.7-0.4-3.3-0.6-4.8-0.6
			c-2.6,0-4.5,1.2-5.8,3.5v18.8h-7.9v-29.9h7.6L512.3,138.3L512.3,138.3z"/>
		<path class="st0" d="M552.2,163.4h-7.5v-3.5c-2.4,2.8-5.6,4.2-9.5,4.2c-2.6,0-4.7-0.8-6.4-2.4c-1.6-1.6-2.4-3.7-2.4-6.4
			c0-6,4.8-9.4,14.5-10l3.3-0.3v-1.9c0-1.4-0.4-2.4-1.1-3.1c-0.7-0.7-2-1-3.7-1c-1.5,0-2.6,0.3-3.4,0.8c-0.8,0.5-1.2,1.2-1.2,2.1
			v1.2H528c-0.1-0.7-0.2-1.3-0.2-2c0-2.5,1.1-4.5,3.3-6s5.2-2.3,8.9-2.3c3.8,0,6.8,0.8,9,2.5s3.2,4.3,3.2,7.8V163.4z M534.5,154.9
			c0,2.1,1.2,3.2,3.7,3.2c2.3,0,4.3-0.9,6-2.6v-5.6l-3.2,0.5C536.7,151,534.5,152.5,534.5,154.9z M541.6,117.8h8.1l-5.7,10.8h-7.1
			L541.6,117.8z"/>
		<path class="st0" d="M566.6,138.3L566.6,138.3c2.1-3.6,4.7-5.4,8.1-5.4c1.3,0,2.4,0.1,3.4,0.4l-0.6,8.4c-1.7-0.4-3.3-0.6-4.8-0.6
			c-2.6,0-4.5,1.2-5.8,3.5v18.8H559v-29.9h7.6V138.3z"/>
		<path class="st0" d="M586.3,127.9c-3.2,0-4.8-1.5-4.8-4.6c0-1.6,0.4-2.8,1.3-3.5c0.9-0.8,2.1-1.2,3.5-1.2c1.3,0,2.4,0.4,3.3,1.2
			c0.9,0.8,1.4,2,1.4,3.5c0,1.6-0.4,2.7-1.3,3.5C588.8,127.5,587.7,127.9,586.3,127.9z M582.5,163.4v-29.9h7.9v29.9H582.5z"/>
		<path class="st0" d="M621.7,163.4h-7.5v-3.5c-2.4,2.8-5.6,4.2-9.5,4.2c-2.6,0-4.7-0.8-6.4-2.4c-1.6-1.6-2.4-3.7-2.4-6.4
			c0-6,4.8-9.4,14.5-10l3.3-0.3v-1.9c0-1.4-0.4-2.4-1.1-3.1c-0.7-0.7-2-1-3.7-1c-1.5,0-2.6,0.3-3.4,0.8c-0.8,0.5-1.2,1.2-1.2,2.1
			v1.2h-6.9c-0.1-0.7-0.2-1.3-0.2-2c0-2.5,1.1-4.5,3.3-6s5.2-2.3,8.9-2.3c3.8,0,6.8,0.8,9,2.5s3.2,4.3,3.2,7.8v20.3H621.7z
			 M604,154.9c0,2.1,1.2,3.2,3.7,3.2c2.3,0,4.3-0.9,6-2.6v-5.6l-3.2,0.5C606.2,151,604,152.5,604,154.9z"/>
		<path class="st0" d="M651,137.3l-4.4,4.7c-2.1-2.1-4.5-3.1-7.2-3.1c-1.3,0-2.3,0.3-3,0.8c-0.7,0.6-1,1.2-1,2.1
			c0,1.5,0.9,2.4,2.7,2.8l5,1.1c5.7,1.3,8.5,4.3,8.5,8.8c0,2.7-1,5-3.1,6.8s-5.4,2.8-9.9,2.8c-5.4,0-9.5-1.7-12.2-5l4.5-4.7
			c2.4,2.6,5.1,3.9,8,3.9c1.4,0,2.5-0.3,3.3-0.8s1.2-1.2,1.2-2.2c0-1.4-1-2.4-3-2.8l-5.1-1.3c-5.3-1.3-7.9-4.2-7.9-8.7
			c0-2.5,1-4.8,3-6.7s5.1-2.9,9.2-2.9C644.6,132.9,648.4,134.3,651,137.3z"/>
	</g>
</g>
</svg>
